# xmcd
#
# Track frame offsets: 
#        183
#        10030
#        21483
#        31305
#        43533
#        58955
#        72813
#        82378
#        92285
#        105718
#        116833
#        129708
#        142298
#        152505
#        162538
#        177175
#        187738
#        202450
#        211753
#        224138
#        234573
#
# Disc length: 3309 seconds
#
# Revision: 4
# Processed by: cddbd v1.5.1PL0 Copyright (c) Steve Scherf et al.
# Submitted via: ExactAudioCopy v0.95a5
#
DISCID=3c0ceb15
DTITLE=Chuck Berry - On The Blues Side
DYEAR=1993
DGENRE=Rock and Roll
TTITLE0=Confessin' The Blues
TTITLE1=Run Around
TTITLE2=Worried Life Blues
TTITLE3=The Things That I Used To Do
TTITLE4=Blues For Hawaiians
TTITLE5=Wee Wee Hours
TTITLE6=I Still Got The Blues
TTITLE7=Down The Road Apiece
TTITLE8=No Money Down
TTITLE9=Stop And Listen
TTITLE10=Blue On Blue
TTITLE11=Sweet Sixteen
TTITLE12=I Got't Find My Baby
TTITLE13=I Just Want To Make Love To You
TTITLE14=Merry Christmas Baby
TTITLE15=Deep Feeling
TTITLE16=Wee Hour Blues
TTITLE17=Dont't You Lie To Me
TTITLE18=Ain't That Just Like A Woman
TTITLE19=Driftin' Blues
TTITLE20=Blue Feeling
EXTD=
EXTT0=
EXTT1=
EXTT2=
EXTT3=
EXTT4=
EXTT5=
EXTT6=
EXTT7=
EXTT8=
EXTT9=
EXTT10=
EXTT11=
EXTT12=
EXTT13=
EXTT14=
EXTT15=
EXTT16=
EXTT17=
EXTT18=
EXTT19=
EXTT20=
PLAYORDER=
